<svg width="72" height="72" viewBox="0 0 72 72" fill="none" xmlns="http://www.w3.org/2000/svg">
<path d="M47.0461 42.1718C45.944 42.1718 45.0474 41.2762 45.0474 40.1758C45.0474 39.0754 45.944 38.1804 47.0461 38.1804C48.1483 38.1804 49.0447 39.0754 49.0447 40.1758C49.0447 41.2762 48.1483 42.1718 47.0461 42.1718ZM24.9539 42.1718C23.8518 42.1718 22.9553 41.2762 22.9553 40.1758C22.9553 39.0754 23.8518 38.1804 24.9539 38.1804C26.056 38.1804 26.9526 39.0754 26.9526 40.1758C26.9526 41.2762 26.056 42.1718 24.9539 42.1718ZM47.7629 30.1515L51.7576 23.2443C51.9866 22.8473 51.8504 22.3402 51.4534 22.111C51.0564 21.8823 50.5478 22.0183 50.3181 22.4147L46.2735 29.4093C43.1805 28 39.7067 27.2151 36 27.2151C32.2933 27.2151 28.8195 28 25.7265 29.4093L21.6819 22.4147C21.4522 22.0183 20.9436 21.8823 20.5466 22.111C20.1496 22.3402 20.0128 22.8473 20.2424 23.2443L24.2371 30.1515C17.3777 33.8761 12.6863 40.8092 12 49H60C59.3131 40.8092 54.6216 33.8761 47.7629 30.1515Z" fill="#3DDB85"/>
</svg>
