<svg width="72" height="72" viewBox="0 0 72 72" fill="none" xmlns="http://www.w3.org/2000/svg">
<path fill-rule="evenodd" clip-rule="evenodd" d="M0 0H72V72H0V0Z" fill="white"/>
<path d="M36 55C46.4934 55 55 46.4934 55 36C55 25.5066 46.4934 17 36 17C25.5066 17 17 25.5066 17 36C17 46.4934 25.5066 55 36 55Z" stroke="#0074DF" stroke-width="2" stroke-linecap="round" stroke-linejoin="round"/>
<path d="M53 28H36" stroke="#0074DF" stroke-width="2" stroke-linecap="round" stroke-linejoin="round"/>
<path d="M21 25L29 40" stroke="#0074DF" stroke-width="2" stroke-linecap="round" stroke-linejoin="round"/>
<path d="M34 55L43 40" stroke="#0074DF" stroke-width="2" stroke-linecap="round" stroke-linejoin="round"/>
<path d="M36 44C40.4183 44 44 40.4183 44 36C44 31.5817 40.4183 28 36 28C31.5817 28 28 31.5817 28 36C28 40.4183 31.5817 44 36 44Z" stroke="#0074DF" stroke-width="2" stroke-linecap="round" stroke-linejoin="round"/>
</svg>
