<svg width="36" height="28" viewBox="0 0 36 28" fill="none" xmlns="http://www.w3.org/2000/svg">
<path d="M0 0H36V28H0V0ZM34.3636 1.64706H1.63636V26.3529H34.3636V1.64706Z" fill="#78CEFF"/>
<path d="M12.2727 18.1177C12.0273 18.1177 11.8227 18.0354 11.6591 17.8295C11.3727 17.5001 11.4136 16.9648 11.7818 16.6766L15.9136 13.1766L11.7409 9.67656C11.4136 9.38833 11.3318 8.85304 11.6182 8.52362C11.9046 8.19421 12.4364 8.11186 12.7636 8.40009L17.6727 12.5177C17.8773 12.6824 17.9591 12.8883 17.9591 13.1354C17.9591 13.3824 17.8364 13.6295 17.6727 13.753L12.7636 17.8707C12.6409 18.0354 12.4773 18.1177 12.2727 18.1177Z" fill="#78CEFF"/>
<path d="M23.7273 19.7647H18.8182C18.3682 19.7647 18 19.3941 18 18.9412C18 18.4883 18.3682 18.1177 18.8182 18.1177H23.7273C24.1773 18.1177 24.5455 18.4883 24.5455 18.9412C24.5455 19.3941 24.1773 19.7647 23.7273 19.7647Z" fill="#78CEFF"/>
</svg>
