<svg width="34" height="36" viewBox="0 0 34 36" fill="none" xmlns="http://www.w3.org/2000/svg">
<path d="M0.432148 9.60589L16.6561 17.725C16.7648 17.7799 16.8828 17.8065 17.0008 17.8065C17.1188 17.8065 17.2369 17.7799 17.3455 17.725L33.5685 9.60589C33.833 9.47418 34.0002 9.20189 34.0002 8.90347C34.0002 8.60504 33.833 8.3338 33.5685 8.20105L17.3455 0.0819229C17.1282 -0.0273076 16.8735 -0.0273076 16.6561 0.0819229L0.432148 8.20105C0.167666 8.3338 0.000488281 8.60504 0.000488281 8.90347C0.000488281 9.20189 0.168183 9.47418 0.432148 9.60589ZM17.0008 1.65923L31.4754 8.90347L17.0008 16.1482L2.52523 8.90347L17.0008 1.65923Z" fill="#00BE91"/>
<path d="M32.8788 14.4616L17.0005 22.4083L1.12124 14.4616C0.737716 14.2708 0.27138 14.4287 0.0809115 14.8159C-0.109557 15.2037 0.0477853 15.6746 0.431828 15.8664L16.6558 23.9856C16.7645 24.0404 16.8825 24.0671 17.0005 24.0671C17.1185 24.0671 17.2365 24.0404 17.3452 23.9856L33.5682 15.8664C33.9522 15.6746 34.1096 15.2037 33.9191 14.8159C33.7286 14.4282 33.2623 14.2698 32.8788 14.4616Z" fill="#00BE91"/>
<path d="M32.8788 20.4282L17.0005 28.3749L1.12124 20.4282C0.737716 20.2364 0.27138 20.3947 0.0809115 20.7825C-0.109557 21.1703 0.0477853 21.6412 0.431828 21.833L16.6558 29.9522C16.7645 30.007 16.8825 30.0337 17.0005 30.0337C17.1185 30.0337 17.2365 30.007 17.3452 29.9522L33.5682 21.833C33.9522 21.6412 34.1096 21.1703 33.9191 20.7825C33.7286 20.3942 33.2623 20.2348 32.8788 20.4282Z" fill="#00BE91"/>
<path d="M32.8788 26.3945L17.0005 34.3412L1.12124 26.3945C0.737716 26.2038 0.27138 26.3611 0.0809115 26.7489C-0.109557 27.1367 0.0477853 27.6076 0.431828 27.7994L16.6558 35.9185C16.7645 35.9734 16.8825 36 17.0005 36C17.1185 36 17.2365 35.9734 17.3452 35.9185L33.5682 27.7994C33.9522 27.6076 34.1096 27.1367 33.9191 26.7489C33.7286 26.3606 33.2623 26.2022 32.8788 26.3945Z" fill="#00BE91"/>
</svg>
