<svg width="36" height="34" viewBox="0 0 36 34" fill="none" xmlns="http://www.w3.org/2000/svg">
<path d="M35.8612 12.771C35.501 11.6711 34.5487 10.9354 33.3769 10.8506L24.1075 10.17L20.6167 1.71299C20.1823 0.656437 19.187 0 18.0193 0C16.8588 0 15.8533 0.650383 15.3871 1.71198L11.8953 10.1705L2.60901 10.8527C1.42545 10.9667 0.475735 11.7225 0.129315 12.8255C-0.209429 13.9058 0.128804 15.0304 1.00944 15.758L8.07957 21.6675L5.88285 30.5442C5.66641 31.3753 5.8455 32.2376 6.37408 32.9096C6.91086 33.5928 7.74646 34 8.60918 34C9.13367 34 9.6551 33.8491 10.111 33.5666L18.0014 28.7621L25.8918 33.5666C26.3385 33.8385 26.8446 33.9823 27.3558 33.9823C28.2118 33.9823 29.0474 33.5802 29.5904 32.9066C30.1235 32.2456 30.3185 31.3914 30.122 30.5533L27.9232 21.668L34.9913 15.761C35.8756 15.0294 36.2169 13.8563 35.8612 12.771ZM34.0017 14.6036L26.2075 21.1175L28.6284 30.9025C28.7179 31.2849 28.633 31.6619 28.3889 31.9641C27.9852 32.4641 27.258 32.62 26.6977 32.2779L18.0014 26.9825L9.29895 32.2815C9.07995 32.4177 8.84763 32.4858 8.60969 32.4858C8.60918 32.4858 8.60918 32.4858 8.60918 32.4858C8.21722 32.4858 7.83498 32.2976 7.58681 31.9817C7.44814 31.8057 7.23578 31.4338 7.3719 30.9116L9.7953 21.1175L1.99855 14.6006C1.59073 14.264 1.44029 13.768 1.59584 13.273C1.75805 12.7554 2.19248 12.4133 2.74 12.3608L12.9586 11.6105L16.8025 2.29879C17.0179 1.80785 17.4728 1.5147 18.0188 1.5147C18.5571 1.5147 18.9962 1.8018 19.1942 2.28315L23.0437 11.61L33.2638 12.3603C33.8088 12.3996 34.234 12.7271 34.4008 13.2357C34.5303 13.6308 34.4935 14.1964 34.0017 14.6036Z" fill="#FF7F56"/>
</svg>
