<svg width="20" height="18" viewBox="0 0 20 18" fill="none" xmlns="http://www.w3.org/2000/svg">
<path d="M16.2318 7H9.54399C8.72319 7 8.0578 7.61991 8.0578 8.38462V14.6154C8.0578 15.3801 8.72319 16 9.54399 16H16.2318C17.0526 16 17.718 15.3801 17.718 14.6154V8.38462C17.718 7.61991 17.0526 7 16.2318 7Z" stroke="#BBBBBB" stroke-linecap="round" stroke-linejoin="round"/>
<path d="M4.6726 10H4.01207C3.6617 10 3.32568 9.87033 3.07794 9.63952C2.83019 9.4087 2.69101 9.09565 2.69101 8.76923V3.23077C2.69101 2.90435 2.83019 2.5913 3.07794 2.36048C3.32568 2.12967 3.6617 2 4.01207 2H9.95683C10.3072 2 10.6432 2.12967 10.891 2.36048C11.1387 2.5913 11.2779 2.90435 11.2779 3.23077V3.84615" stroke="#BBBBBB" stroke-linecap="round" stroke-linejoin="round"/>
</svg>
