<svg width="26" height="36" viewBox="0 0 26 36" fill="none" xmlns="http://www.w3.org/2000/svg">
<path d="M12.9772 0C6.72688 0.158833 0 4.3661 0 13.2305C0 18.2543 2.91057 21.2418 5.036 23.4231C6.14808 24.564 7.10821 25.5497 7.17857 26.3433L7.25247 27.1696H18.7475L18.8214 26.3433C18.8918 25.5491 19.8519 24.5634 20.964 23.4231C23.0894 21.2412 26 18.2543 26 13.2305C25.9994 4.3661 19.2713 0.158227 12.9772 0ZM19.7094 22.1372C18.6198 23.2557 17.6502 24.2512 17.2447 25.3515H8.75476C8.34918 24.2518 7.37959 23.2557 6.28997 22.1372C4.27805 20.0724 1.77306 17.502 1.77306 13.2305C1.77306 5.54341 7.42274 1.95996 12.9778 1.8187C18.5767 1.95996 24.2252 5.54401 24.2252 13.2305C24.2258 17.502 21.7214 20.0724 19.7094 22.1372Z" fill="#FFBC39"/>
<path d="M6.79199 29.3017C6.79199 32.9955 9.57663 36 12.9998 36C16.4229 36 19.2076 32.9949 19.2076 29.3017V28.3923H6.79199V29.3017ZM17.3565 30.211C16.9686 32.4687 15.1625 34.1813 12.9998 34.1813C10.8371 34.1813 9.03094 32.4687 8.6431 30.211H17.3565Z" fill="#FFBC39"/>
</svg>
