<svg width="36" height="36" viewBox="0 0 36 36" fill="none" xmlns="http://www.w3.org/2000/svg">
<path d="M30.774 0H5.226C2.3396 0.0004 0.0004 2.3396 0 5.226V30.7744C0.0004 33.6604 2.3396 35.9996 5.226 36H30.7744C33.6604 35.9996 35.9996 33.6604 36 30.774V26.1292V19.1612V5.226C35.9996 2.3396 33.6604 0.0004 30.774 0ZM33.648 33.648C32.9108 34.3844 31.898 34.838 30.774 34.8384H5.226C4.1016 34.838 3.0892 34.3844 2.352 33.648C1.6156 32.9108 1.162 31.898 1.1616 30.774V8.5068C2.1196 9.692 3.5832 10.4512 5.226 10.4516H30.7736H30.774C31.8984 10.452 32.9108 10.9056 33.648 11.642C34.3844 12.3792 34.838 13.392 34.8384 14.516V18.5804H29.6128C27.368 18.5808 25.5488 20.4 25.5484 22.6452C25.5488 24.89 27.368 26.7092 29.6128 26.7096H34.8384V30.774C34.8384 31.8984 34.3844 32.9108 33.648 33.648ZM29.6128 25.5484C28.8092 25.548 28.0872 25.2244 27.56 24.698C27.0336 24.1708 26.71 23.4488 26.7096 22.6452C26.71 21.8416 27.0336 21.1196 27.56 20.5924C28.0872 20.066 28.8092 19.7424 29.6128 19.742H34.8384V25.5484H29.6128ZM34.8388 6.59C33.8808 5.4048 32.4172 4.6456 30.7744 4.6456L30.7716 4.646L30.7688 4.6456H5.8548C5.534 4.6456 5.274 4.9056 5.274 5.2264C5.274 5.5472 5.534 5.8072 5.8548 5.8072H30.7684L30.7712 5.8068L30.774 5.8072C31.8984 5.8076 32.9108 6.2612 33.648 6.9976C34.3844 7.7348 34.838 8.7476 34.8384 9.8716V11.2356C33.8804 10.0504 32.4168 9.2912 30.774 9.2912H5.226C4.1016 9.2908 3.0892 8.8372 2.352 8.1008C1.6156 7.3636 1.162 6.3508 1.1616 5.2268C1.162 4.1024 1.6156 3.09 2.352 2.3528C2.8128 1.8924 3.3812 1.5428 4.0172 1.3448C4.3988 1.226 4.8044 1.1624 5.226 1.162H30.7744C31.8988 1.1624 32.9112 1.616 33.6484 2.3524C34.3848 3.0896 34.8384 4.1024 34.8388 5.2264V6.59Z" fill="#0094FF"/>
</svg>
