<svg width="72" height="72" viewBox="0 0 72 72" fill="none" xmlns="http://www.w3.org/2000/svg">
<path fill-rule="evenodd" clip-rule="evenodd" d="M0 0H72V72H0V0Z" fill="white"/>
<path fill-rule="evenodd" clip-rule="evenodd" d="M42.018 14.7571C38.696 15.0251 33.982 18.4531 34.625 23.5421C39 23.7031 42.661 18.7571 42.018 14.7571ZM28.5 23.0781C31.714 23.0781 33.054 24.9531 35.643 24.9531C37.821 24.9531 39.536 23.0781 42.768 23.0781C47.125 23.0781 49.911 27.2571 49.911 27.2571C49.911 27.2571 45.661 29.5421 45.661 34.5071C45.66 40.4001 51 42.1141 51 42.1141C51 42.1141 46.786 52.0241 42.054 52.0241C39.393 52.0241 39.214 50.5071 35.679 50.5071C32.607 50.5071 31.571 52.0251 29.232 52.0251C24.768 52.0251 19 42.3641 19 34.5071C19 26.3461 24.84 23.0781 28.5 23.0781Z" fill="black"/>
</svg>
