<svg width="72" height="72" viewBox="0 0 72 72" fill="none" xmlns="http://www.w3.org/2000/svg">
<path d="M51.0119 53.604H50.7959V53.46H51.4079V53.604H51.1919V54.252H51.0479V53.604H51.0119ZM52.2719 53.64L52.0559 54.252H51.9479L51.7319 53.64V54.252H51.5879V53.496H51.8039L52.0199 54.036L52.2359 53.496H52.4519V54.252H52.3079L52.2719 53.64Z" fill="black"/>
<path d="M30.456 37.8719C30.456 37.8719 28.872 38.8079 31.608 39.1319C34.92 39.5279 36.612 39.4559 40.284 38.7719C40.284 38.7719 41.256 39.3839 42.588 39.8879C34.344 43.3799 24.012 39.6719 30.456 37.8719ZM29.448 33.2639C29.448 33.2639 27.648 34.5959 30.384 34.8839C33.912 35.2439 36.72 35.2799 41.58 34.3439C41.58 34.3439 42.264 35.0279 43.308 35.3879C33.372 38.3039 22.356 35.6399 29.448 33.2639Z" fill="#5382A1"/>
<path d="M37.8721 25.488C39.8881 27.828 37.3321 29.916 37.3321 29.916C37.3321 29.916 42.4441 27.252 40.1041 23.94C37.9081 20.88 36.2521 19.332 45.3601 14.04C45.3601 14.04 31.0321 17.604 37.8721 25.488Z" fill="#E76F00"/>
<path d="M48.708 41.2559C48.708 41.2559 49.896 42.2279 47.412 42.9839C42.696 44.4239 27.72 44.8559 23.58 43.0559C22.104 42.4079 24.876 41.5079 25.776 41.3279C26.712 41.1119 27.216 41.1479 27.216 41.1479C25.56 39.9959 16.488 43.4519 22.608 44.4239C39.312 47.1239 53.064 43.1999 48.708 41.2559ZM31.212 28.5119C31.212 28.5119 23.616 30.3119 28.512 30.9599C30.6 31.2479 34.704 31.1759 38.556 30.8519C41.688 30.5999 44.856 30.0239 44.856 30.0239C44.856 30.0239 43.74 30.4919 42.948 31.0319C35.208 33.0479 20.304 32.1119 24.588 30.0239C28.26 28.3319 31.212 28.5119 31.212 28.5119ZM44.856 36.1439C52.704 32.0759 49.068 28.1519 46.548 28.6559C45.936 28.7999 45.648 28.9079 45.648 28.9079C45.648 28.9079 45.864 28.5479 46.332 28.4039C51.336 26.6399 55.188 33.5879 44.712 36.3599C44.712 36.3599 44.82 36.2519 44.856 36.1439Z" fill="#5382A1"/>
<path d="M40.14 5.50806C40.14 5.50806 44.496 9.86406 36 16.5601C29.196 21.9241 34.452 24.9841 36 28.4761C32.04 24.9121 29.124 21.7441 31.068 18.8281C33.948 14.4721 41.868 12.3841 40.14 5.50806Z" fill="#E76F00"/>
<path d="M31.9681 47.1959C39.4921 47.6639 51.0841 46.9439 51.3361 43.3799C51.3361 43.3799 50.7961 44.7479 45.1081 45.7919C38.6641 47.0159 30.7441 46.8719 26.0281 46.0799C26.0641 46.0799 27.0361 46.9079 31.9681 47.1959Z" fill="#5382A1"/>
<path d="M30.744 60.8399C30.024 61.4519 29.268 61.8119 28.62 61.8119C27.648 61.8119 27.144 61.2359 27.144 60.2999C27.144 59.2919 27.684 58.5719 29.952 58.5719H30.78L30.744 60.8399ZM32.724 63.0359V56.1959C32.724 54.4319 31.716 53.2799 29.304 53.2799C27.9 53.2799 26.676 53.6399 25.668 54.0719L25.956 55.2959C26.748 55.0079 27.756 54.7199 28.764 54.7199C30.168 54.7199 30.744 55.2959 30.744 56.4479V57.3119H30.06C26.676 57.3119 25.164 58.6079 25.164 60.5879C25.164 62.2799 26.172 63.2519 28.044 63.2519C29.268 63.2519 30.168 62.7479 30.996 62.0279L31.14 63.0719L32.724 63.0359ZM39.276 63.0359H36.828L33.876 53.4599H36L37.836 59.3639L38.232 61.1279C39.168 58.5719 39.816 55.9799 40.14 53.4599H42.228C41.652 56.6279 40.644 60.0839 39.276 63.0359ZM48.636 60.8399C47.916 61.4519 47.16 61.8119 46.512 61.8119C45.54 61.8119 45.036 61.2359 45.036 60.2999C45.036 59.2919 45.612 58.5719 47.844 58.5719H48.672V60.8399H48.636ZM50.616 63.0359V56.1959C50.616 54.4319 49.608 53.2799 47.196 53.2799C45.792 53.2799 44.568 53.6399 43.56 54.0719L43.848 55.2959C44.64 55.0079 45.648 54.7199 46.656 54.7199C48.024 54.7199 48.636 55.2959 48.636 56.4479V57.3119H47.952C44.568 57.3119 43.056 58.6079 43.056 60.5879C43.056 62.2799 44.064 63.2519 45.936 63.2519C47.16 63.2519 48.06 62.7479 48.888 62.0279L49.032 63.0719L50.616 63.0359ZM23.004 64.6919C22.428 65.5199 21.528 66.1679 20.556 66.5279L19.584 65.3759C20.34 64.9799 20.988 64.3679 21.276 63.7919C21.528 63.2879 21.636 62.6039 21.636 61.0199V50.0759H23.76V60.8759C23.76 62.9639 23.58 63.8279 23.004 64.6919Z" fill="#E76F00"/>
</svg>
