<svg width="97" height="48" viewBox="0 0 97 48" fill="none" xmlns="http://www.w3.org/2000/svg">
<path d="M61.21 44.19C60.3833 44.19 59.65 44.0067 59.01 43.64C58.37 43.2733 57.8633 42.69 57.49 41.89C57.1233 41.0833 56.94 40.0533 56.94 38.8C56.94 36.86 57.4 35.4067 58.32 34.44C59.2467 33.4667 60.6133 32.98 62.42 32.98C62.94 32.98 63.5267 33.03 64.18 33.13V27.84H65.78V44H64.41L64.3 42.82H64.2C63.86 43.24 63.4333 43.5733 62.92 43.82C62.4067 44.0667 61.8367 44.19 61.21 44.19ZM61.58 42.81C62.0867 42.81 62.57 42.7 63.03 42.48C63.49 42.2533 63.8733 41.9167 64.18 41.47V34.48C63.9267 34.4267 63.64 34.3833 63.32 34.35C63 34.31 62.69 34.29 62.39 34.29C61.1033 34.29 60.1433 34.6367 59.51 35.33C58.8833 36.0167 58.57 37.1233 58.57 38.65C58.57 40.1633 58.83 41.2367 59.35 41.87C59.8767 42.4967 60.62 42.81 61.58 42.81ZM72.8391 44.19C71.3857 44.19 70.2524 43.7333 69.4391 42.82C68.6324 41.9 68.2291 40.49 68.2291 38.59C68.2291 36.69 68.6324 35.28 69.4391 34.36C70.2457 33.44 71.3791 32.98 72.8391 32.98C74.3057 32.98 75.4424 33.4367 76.2491 34.35C77.0557 35.2633 77.4591 36.6733 77.4591 38.58C77.4591 40.4733 77.0524 41.8833 76.2391 42.81C75.4257 43.73 74.2924 44.19 72.8391 44.19ZM72.8391 42.89C73.8124 42.89 74.5524 42.5633 75.0591 41.91C75.5657 41.25 75.8191 40.15 75.8191 38.61C75.8191 37.0433 75.5657 35.9333 75.0591 35.28C74.5524 34.62 73.8124 34.29 72.8391 34.29C71.8724 34.29 71.1324 34.6167 70.6191 35.27C70.1124 35.9233 69.8591 37.02 69.8591 38.56C69.8591 40.12 70.1124 41.2333 70.6191 41.9C71.1257 42.56 71.8657 42.89 72.8391 42.89ZM84.2009 44.19C82.6276 44.19 81.4343 43.7367 80.6209 42.83C79.8076 41.9233 79.4009 40.5067 79.4009 38.58C79.4009 36.6533 79.8376 35.24 80.7109 34.34C81.5909 33.4333 82.8876 32.98 84.6009 32.98C85.4076 32.98 86.1509 33.0733 86.8309 33.26V34.62C86.1176 34.44 85.4343 34.35 84.7809 34.35C83.9276 34.35 83.2276 34.4867 82.6809 34.76C82.1409 35.0333 81.7343 35.4767 81.4609 36.09C81.1943 36.7033 81.0609 37.52 81.0609 38.54C81.0609 39.5733 81.1843 40.4067 81.4309 41.04C81.6843 41.6667 82.0576 42.1233 82.5509 42.41C83.0443 42.69 83.6709 42.83 84.4309 42.83C85.1309 42.83 85.9309 42.68 86.8309 42.38V43.74C85.9843 44.04 85.1076 44.19 84.2009 44.19ZM91.1938 44.19C90.0938 44.19 89.0904 44.0433 88.1838 43.75V42.46C89.1771 42.76 90.1804 42.91 91.1938 42.91C92.9804 42.91 93.8738 42.3033 93.8738 41.09C93.8738 40.5967 93.7438 40.22 93.4838 39.96C93.2304 39.7 92.8038 39.5033 92.2038 39.37L90.7338 39.07C89.7671 38.8633 89.0671 38.52 88.6338 38.04C88.2004 37.56 87.9838 36.92 87.9838 36.12C87.9838 35.5 88.1404 34.9533 88.4538 34.48C88.7671 34.0067 89.2438 33.64 89.8838 33.38C90.5304 33.1133 91.3271 32.98 92.2738 32.98C93.1471 32.98 94.0004 33.0867 94.8338 33.3V34.6C94.3938 34.48 93.9738 34.3933 93.5738 34.34C93.1738 34.2867 92.7538 34.26 92.3138 34.26C91.3338 34.26 90.6204 34.4267 90.1738 34.76C89.7338 35.0867 89.5138 35.5267 89.5138 36.08C89.5138 36.5267 89.6371 36.8867 89.8838 37.16C90.1304 37.4333 90.5471 37.6333 91.1338 37.76L92.6037 38.06C93.5904 38.2667 94.3038 38.6067 94.7438 39.08C95.1904 39.5533 95.4138 40.1967 95.4138 41.01C95.4138 42.01 95.0504 42.79 94.3238 43.35C93.5971 43.91 92.5538 44.19 91.1938 44.19Z" fill="#A2A2A2"/>
<path d="M22.5998 12.1768V12.3201L9.98037 44.0001H4.41439V43.9045L9.16467 32.9623L0 12.3201V12.1768H5.66194L10.2203 23.0712C10.7961 24.4729 11.2759 25.8426 11.6598 27.1806C11.9796 25.9701 12.4115 24.6003 12.9553 23.0712L17.1298 12.1768H22.5998Z" fill="#0074DF"/>
<path d="M32.1723 10.7988C34.9553 10.7988 37.1145 11.4837 38.6499 12.8535C40.2173 14.2233 41.0011 16.1824 41.0011 18.7308V32.4922H37.4983L36.5387 29.2908C35.739 30.4375 34.6834 31.3295 33.3718 31.9666C32.0923 32.6037 30.6048 32.9223 28.9095 32.9223C26.8942 32.9223 25.2628 32.3966 24.0152 31.3454C22.7997 30.2623 22.1919 28.797 22.1919 26.9494C22.1919 24.5603 23.1675 22.7127 25.1188 21.4066C27.0701 20.0687 29.7092 19.3997 33.036 19.3997C33.8037 19.3997 34.6993 19.4316 35.723 19.4953V18.5396C35.723 17.4566 35.3391 16.6443 34.5714 16.1027C33.8037 15.5293 32.7321 15.2426 31.3566 15.2426C29.3093 15.2426 27.0861 15.816 24.687 16.9628L23.1995 12.9968C26.4304 11.5315 29.4213 10.7988 32.1723 10.7988ZM30.4449 29.0041C32.0123 29.0041 33.2919 28.4625 34.2835 27.3795C35.3071 26.2964 35.8349 24.7992 35.8669 22.8879C35.0032 22.7923 34.1715 22.7445 33.3718 22.7445C31.4845 22.7445 30.0131 23.0631 28.9574 23.7002C27.9018 24.3373 27.374 25.2452 27.374 26.4238C27.374 27.252 27.6459 27.8891 28.1897 28.3351C28.7335 28.7811 29.4852 29.0041 30.4449 29.0041Z" fill="#0074DF"/>
<path d="M42.5365 0H55.0599C57.2991 0 59.2504 0.493755 60.9138 1.48126C62.5772 2.43692 63.8407 3.72706 64.7044 5.35167C65.5681 6.94443 66 8.64868 66 10.4644C66 12.2802 65.5681 13.9685 64.7044 15.5294C63.8407 17.0585 62.5772 18.3008 60.9138 19.2565C59.2504 20.1803 57.2671 20.6422 54.964 20.6422H48.1984V32.4923H42.5365V0ZM54.3402 15.8161C56.2915 15.8161 57.763 15.2905 58.7546 14.2393C59.7782 13.188 60.29 11.9138 60.29 10.4166C60.29 8.85574 59.7622 7.54968 58.7066 6.49846C57.651 5.44724 56.2435 4.92163 54.4842 4.92163H48.1984V15.8161H54.3402Z" fill="#0074DF"/>
</svg>
