<svg width="72" height="72" viewBox="0 0 72 72" fill="none" xmlns="http://www.w3.org/2000/svg">
<path d="M36.0001 59.6519C35.3521 59.6519 34.7401 59.4719 34.1641 59.1839L28.3681 55.7639C27.5041 55.2959 27.9361 55.1159 28.1881 55.0079C29.3761 54.6119 29.5921 54.5399 30.7801 53.8199C30.9241 53.7479 31.0681 53.7839 31.2121 53.8559L35.6401 56.5199C35.8201 56.5919 36.0361 56.5919 36.1441 56.5199L53.4961 46.4759C53.6761 46.4039 53.7481 46.2239 53.7481 46.0079V25.9559C53.7481 25.7399 53.6761 25.5599 53.4961 25.4879L36.2161 15.4799C36.0361 15.4079 35.8201 15.4079 35.7121 15.4799L18.3601 25.4879C18.1801 25.5599 18.1081 25.7759 18.1081 25.9559V46.0079C18.1081 46.1879 18.1801 46.4039 18.3601 46.4759L23.1121 49.2119C25.6681 50.5079 27.2881 48.9959 27.2881 47.4839V27.7199C27.2881 27.4679 27.5041 27.2159 27.7921 27.2159H30.0241C30.2761 27.2159 30.5281 27.4319 30.5281 27.7199V47.5199C30.5281 50.9399 28.6561 52.9559 25.3801 52.9559C24.3721 52.9559 23.5801 52.9559 21.3841 51.8759L16.8121 49.2839C15.6961 48.6359 14.9761 47.4119 14.9761 46.1159V26.0279C14.9761 24.7319 15.6601 23.5079 16.8121 22.8599L34.1641 12.8159C35.2441 12.2039 36.7201 12.2039 37.8001 12.8159L55.1521 22.8599C56.2681 23.5079 56.9881 24.7319 56.9881 26.0279V46.0799C56.9881 47.3759 56.3041 48.5999 55.1521 49.2479L37.8001 59.2919C37.2601 59.5439 36.6121 59.6519 36.0001 59.6519ZM41.3641 45.8639C33.7681 45.8639 32.1841 42.3719 32.1841 39.4199C32.1841 39.1679 32.4001 38.9159 32.6881 38.9159H34.9561C35.2081 38.9159 35.4241 39.0959 35.4241 39.3479C35.7841 41.6519 36.7561 42.7679 41.3641 42.7679C45.0001 42.7679 46.5841 41.9399 46.5841 39.9959C46.5841 38.8799 46.1521 38.0519 40.4641 37.4759C35.7121 37.0079 32.7601 35.9639 32.7601 32.1839C32.7601 28.6559 35.7121 26.5679 40.6801 26.5679C46.2601 26.5679 48.9961 28.4759 49.3201 32.6519C49.3201 32.7959 49.2841 32.9039 49.1761 33.0479C49.1041 33.1199 48.9601 33.2279 48.8161 33.2279H46.5481C46.3321 33.2279 46.1161 33.0479 46.0801 32.8319C45.5761 30.4559 44.2081 29.6639 40.6441 29.6639C36.6481 29.6639 36.1801 31.0679 36.1801 32.1119C36.1801 33.3719 36.7561 33.7679 42.1201 34.4519C47.4841 35.1359 50.0041 36.1439 50.0041 39.8879C50.0041 43.7039 46.8721 45.8639 41.3641 45.8639Z" fill="#539E43"/>
</svg>
