<svg width="18" height="18" viewBox="0 0 18 18" fill="none" xmlns="http://www.w3.org/2000/svg">
<path d="M17.7312 2.83619L15.1634 0.269615C14.9903 0.0958764 14.7599 0 14.515 0C14.5144 0 14.5144 0 14.5144 0C14.2692 0 14.0388 0.0952949 13.8659 0.268453L1.11207 13.0229C1.03101 13.083 0.968545 13.1705 0.945302 13.2771L0.0106567 17.4695C-0.0221736 17.6148 0.0219876 17.7667 0.127451 17.8725C0.210253 17.9547 0.321527 18 0.435706 18C0.467375 18 0.499333 17.9965 0.53042 17.9893L4.72282 17.0546C4.83002 17.0308 4.91806 16.9683 4.9782 16.8861L17.7312 4.13313C17.9043 3.95997 18.0002 3.72958 18.0002 3.48524C17.9996 3.23974 17.9046 3.00935 17.7312 2.83619ZM4.39655 16.2347L1.01009 16.9895L1.7649 13.6025L2.8788 12.4886L5.51133 15.1205L4.39655 16.2347ZM6.12726 14.504L3.49473 11.8721L11.9612 3.40505L14.5943 6.03699L6.12726 14.504ZM17.1144 3.5172L15.2105 5.42106L12.5774 2.78912L14.4818 0.884675C14.4903 0.876249 14.501 0.8716 14.5141 0.8716C14.5266 0.8716 14.5373 0.876249 14.5463 0.885256L17.1146 3.45241C17.1324 3.46955 17.1318 3.49948 17.1144 3.5172Z" fill="#0074DF"/>
</svg>
