<svg width="18" height="18" viewBox="0 0 18 18" fill="none" xmlns="http://www.w3.org/2000/svg">
<path d="M9 0C4.03747 0 0 4.0372 0 8.99973C0 13.9623 4.0372 18 9 18C13.9628 18 18 13.9625 18 8.99973C18 4.03747 13.9625 0 9 0ZM9 17.1893C4.48446 17.1893 0.810738 13.5155 0.810738 8.99973C0.810738 4.48446 4.48446 0.810738 9 0.810738C13.5155 0.810738 17.1893 4.48446 17.1893 8.99973C17.1893 13.5155 13.5155 17.1893 9 17.1893Z" fill="#979797"/>
<path d="M12.7035 4.76548L7.30506 7.03501C7.2983 7.03717 7.29235 7.0423 7.2856 7.04501C7.27695 7.04825 7.26911 7.05338 7.26074 7.05771C7.23533 7.06933 7.20912 7.07879 7.18696 7.09527C7.17372 7.10473 7.16453 7.11851 7.15264 7.12959C7.14967 7.1323 7.14615 7.13311 7.14345 7.13554C7.14075 7.13797 7.13994 7.14175 7.1375 7.14473C7.09183 7.19121 7.05346 7.24445 7.03427 7.30795L4.76556 12.7031C4.70178 12.855 4.7361 13.0304 4.85257 13.1469C4.93014 13.2244 5.03391 13.2655 5.13931 13.2655C5.19227 13.2655 5.24578 13.2553 5.29632 13.2339L10.6958 10.9636C10.7058 10.9603 10.7137 10.9536 10.7234 10.9495C10.7331 10.9457 10.7415 10.9401 10.7512 10.9357C10.7712 10.9257 10.7926 10.9187 10.8107 10.9057C10.822 10.8979 10.8296 10.886 10.8399 10.8768C10.8482 10.8698 10.8591 10.8668 10.8672 10.859C10.8747 10.8517 10.8772 10.8414 10.8842 10.8333C10.902 10.8125 10.9158 10.7898 10.9293 10.7655C10.9409 10.7444 10.9534 10.7244 10.9607 10.7017C10.9623 10.6974 10.9655 10.6944 10.9666 10.6898L13.2345 5.29652C13.2983 5.14464 13.264 4.96925 13.1475 4.85277C13.0305 4.73575 12.8546 4.70143 12.7035 4.76548ZM5.89789 12.1016L7.56692 8.13248L9.86753 10.4325L5.89789 12.1016ZM10.4375 9.8561L8.14309 7.56226L12.1017 5.89808L10.4375 9.8561Z" fill="#979797"/>
</svg>
