<svg width="36" height="36" viewBox="0 0 36 36" fill="none" xmlns="http://www.w3.org/2000/svg">
<path d="M9.37974 9.13129C9.28894 8.82369 8.96653 8.64769 8.65893 8.73849L5.5861 9.6433C5.2785 9.7337 5.1025 10.0565 5.1929 10.3641L6.35851 14.3229C6.40251 14.4717 6.50131 14.5945 6.63771 14.6685C6.77411 14.7429 6.93092 14.7593 7.07972 14.7157L10.1525 13.8109C10.2993 13.7677 10.4253 13.6661 10.4985 13.5317C10.5717 13.3973 10.5889 13.2365 10.5457 13.0897L9.37974 9.13129ZM7.30852 13.4381L6.47091 10.5933L8.42973 10.0165L9.26734 12.8613L7.30852 13.4381Z" fill="#62AF00"/>
<path d="M26.812 7.89851C26.4972 7.89851 26.1859 7.91452 25.8791 7.94571L23.6783 0.417654C23.6347 0.268853 23.5327 0.142451 23.3959 0.0692508C23.2591 -0.00434983 23.0979 -0.0199498 22.9495 0.0256505L17.3815 1.74526L13.0846 3.01047H13.0842H13.0846L0.418141 6.70531C0.26934 6.74851 0.145739 6.84811 0.0713385 6.98411C-0.00306208 7.12011 -0.0198622 7.27811 0.0237382 7.42691L8.32541 35.5835C8.36941 35.7323 8.46861 35.8551 8.60461 35.9291C8.74101 36.0031 8.89781 36.0199 9.04661 35.9759L17.8715 33.3727C19.3535 34.3967 21.1499 34.9979 23.0879 34.9979C28.1632 34.9975 32.2764 30.8843 32.2768 25.8095C32.2768 25.3771 32.2448 24.9527 32.1868 24.5362C34.5012 22.8598 36 20.1442 36 17.087C35.9984 12.0233 31.8748 7.89971 26.812 7.89851ZM24.7259 8.13932C23.1275 8.51092 21.6907 9.29813 20.5343 10.3817L18.2699 2.68647L22.7291 1.30966L24.7259 8.13932ZM13.9675 3.96088L17.1579 3.02167L19.6167 11.3777C18.4819 12.8062 17.7639 14.5782 17.6435 16.5094L13.9675 3.96088ZM9.27501 34.6983L1.30215 7.65731L12.853 4.28769L17.1139 18.8322C15.1475 20.5174 13.8995 23.017 13.8995 25.8103C13.8995 28.4403 15.0063 30.8103 16.7775 32.4855L9.27501 34.6983ZM28.7644 31.4863C27.31 32.9399 25.3067 33.8371 23.0879 33.8375C20.8695 33.8371 18.8663 32.9399 17.4115 31.4863C15.9579 30.0319 15.0607 28.0287 15.0603 25.8103C15.0607 23.5918 15.9579 21.5886 17.4115 20.1342C17.7659 19.7798 18.1543 19.4602 18.5691 19.177C18.6375 19.1502 18.6979 19.111 18.7499 19.063C20.0015 18.2566 21.4867 17.7838 23.0879 17.7834C25.3063 17.7838 27.3096 18.681 28.7644 20.1346C30.218 21.589 31.1152 23.5922 31.1156 25.8107C31.1152 28.0287 30.218 30.0315 28.7644 31.4863ZM31.92 23.2758C30.8196 19.4342 27.2836 16.6218 23.0879 16.6214C21.5435 16.6214 20.0891 17.0042 18.8115 17.6774C18.7967 17.4822 18.7847 17.2858 18.7847 17.0866C18.7851 14.8746 19.6803 12.871 21.1327 11.4149C22.5863 9.95973 24.5891 9.05972 26.8116 9.05932C29.0224 9.05972 31.026 9.95973 32.4824 11.4153C33.938 12.8718 34.838 14.8758 34.8384 17.0866C34.8388 19.5726 33.7076 21.795 31.92 23.2758Z" fill="#62AF00"/>
<path d="M24.4111 25.2294H21.7646C21.3474 25.229 20.9762 25.0638 20.7046 24.7966C20.4338 24.5282 20.2694 24.1658 20.2694 23.761C20.2698 23.3558 20.4338 22.9938 20.7046 22.725C20.9762 22.4578 21.3478 22.2926 21.7646 22.2922H23.0871H23.0879H23.0887H25.6219C25.9427 22.2922 26.2023 22.0322 26.2023 21.7118C26.2023 21.391 25.9423 21.1314 25.6219 21.1314H23.6683V20.667C23.6683 20.3462 23.4083 20.0862 23.0875 20.0862C22.7667 20.0862 22.5066 20.3462 22.5066 20.667V21.1314H21.7642C21.0346 21.131 20.3682 21.4246 19.8882 21.899C19.4078 22.3722 19.107 23.0346 19.1074 23.7614C19.107 24.4878 19.4078 25.1506 19.8882 25.6238C20.3678 26.0982 21.0346 26.3918 21.7642 26.3914H24.4107C24.8279 26.3918 25.1991 26.557 25.4707 26.8242C25.7415 27.0926 25.9059 27.455 25.9059 27.8602C25.9055 28.2654 25.7415 28.6274 25.4707 28.8959C25.1991 29.1635 24.8275 29.3287 24.4107 29.3287H20.553C20.2322 29.3287 19.9722 29.5887 19.9722 29.9095C19.9722 30.2303 20.2322 30.4903 20.553 30.4903H22.5066V30.9547C22.5066 31.2755 22.7667 31.5355 23.0875 31.5355C23.4083 31.5355 23.6683 31.2755 23.6683 30.9547V30.4903H24.4107C25.1403 30.4907 25.8071 30.1971 26.2867 29.7227C26.7671 29.2495 27.0679 28.5871 27.0675 27.8602C27.0679 27.1334 26.7671 26.471 26.2867 25.9978C25.8075 25.5226 25.1407 25.229 24.4111 25.2294Z" fill="#62AF00"/>
</svg>
