<svg width="72" height="72" viewBox="0 0 72 72" fill="none" xmlns="http://www.w3.org/2000/svg">
<g opacity="0.8">
<g clip-path="url(#clip0)">
<path d="M12.7871 28.4065H20.5596C22.8408 28.4256 24.4939 29.0834 25.5188 30.3786C26.5437 31.6738 26.8819 33.4429 26.5339 35.6859C26.3987 36.7108 26.0989 37.716 25.6348 38.7021C25.19 39.6881 24.5716 40.5773 23.7787 41.3702C22.8118 42.3754 21.7776 43.0135 20.6756 43.2843C19.5735 43.5552 18.4326 43.6903 17.2534 43.6903H13.7732L12.6711 49.2006H8.63989L12.7871 28.4065ZM16.1803 31.7127L14.4402 40.4132C14.5562 40.4323 14.6722 40.4422 14.7882 40.4422C14.9234 40.4422 15.0591 40.4422 15.1943 40.4422C17.0504 40.4613 18.5973 40.278 19.8345 39.8911C21.0717 39.4851 21.9035 38.0739 22.3286 35.6569C22.6767 33.6268 22.3286 32.4569 21.2846 32.1477C20.2597 31.8385 18.9743 31.6935 17.4274 31.7127C17.1954 31.7318 16.9732 31.7417 16.7603 31.7417C16.5672 31.7417 16.3642 31.7417 16.1513 31.7417L16.1803 31.7127Z" fill="black"/>
<path d="M31.1259 22.8672H35.1282L33.9971 28.4065H37.5933C39.5654 28.4453 41.0346 28.8514 42.0015 29.6246C42.9876 30.3978 43.2776 31.8675 42.8716 34.0328L40.9285 43.6903H36.8683L38.7244 34.4678C38.9175 33.5009 38.8595 32.8147 38.5503 32.4087C38.2412 32.0027 37.5741 31.7997 36.5492 31.7997L33.3301 31.7707L30.9519 43.6903H26.9497L31.1259 22.8672Z" fill="black"/>
<path d="M47.1694 28.4065H54.9419C57.2232 28.4256 58.8762 29.0834 59.9011 30.3786C60.9261 31.6738 61.2642 33.4429 60.9162 35.6859C60.781 36.7108 60.4812 37.716 60.0172 38.7021C59.5723 39.6881 58.9539 40.5773 58.1611 41.3702C57.1941 42.3754 56.1599 43.0135 55.0579 43.2843C53.9558 43.5552 52.8149 43.6903 51.6357 43.6903H48.1555L47.0534 49.2006H43.0222L47.1694 28.4065ZM50.5626 31.7127L48.8225 40.4132C48.9385 40.4323 49.0545 40.4422 49.1706 40.4422C49.3057 40.4422 49.4414 40.4422 49.5766 40.4422C51.4327 40.4613 52.9796 40.278 54.2168 39.8911C55.4541 39.4851 56.2858 38.0739 56.711 35.6569C57.059 33.6268 56.711 32.4569 55.6669 32.1477C54.642 31.8385 53.3566 31.6935 51.8097 31.7127C51.5777 31.7318 51.3555 31.7417 51.1427 31.7417C50.9495 31.7417 50.7465 31.7417 50.5336 31.7417L50.5626 31.7127Z" fill="black"/>
</g>
</g>
<defs>
<clipPath id="clip0">
<rect x="8.63989" y="22.3201" width="54.72" height="27.36" fill="white"/>
</clipPath>
</defs>
</svg>
