<svg width="72" height="72" viewBox="0 0 72 72" fill="none" xmlns="http://www.w3.org/2000/svg">
<path d="M35.8415 16.2107C25.7615 16.2107 26.3735 20.6027 26.3735 20.6027V25.1387H36.0215V26.5067H22.5575C22.5575 26.5067 16.1135 25.7867 16.1135 35.9747C16.1135 46.1627 21.7655 45.8027 21.7655 45.8027H25.1135V41.0867C25.1135 41.0867 24.9335 35.4347 30.6575 35.4347H40.1975C40.1975 35.4347 45.5615 35.5067 45.5615 30.2507V21.5387C45.5615 21.5387 46.3895 16.2107 35.8415 16.2107ZM30.5495 19.2707C31.5215 19.2707 32.2775 20.0627 32.2775 20.9987C32.2775 21.9707 31.4855 22.7267 30.5495 22.7267C29.5775 22.7267 28.8215 21.9347 28.8215 20.9987C28.8215 20.0627 29.5775 19.2707 30.5495 19.2707Z" fill="url(#paint0_linear)"/>
<path d="M36.1295 55.7747C46.2095 55.7747 45.5975 51.3827 45.5975 51.3827V46.8467H35.9495V45.4787H49.4135C49.4135 45.4787 55.8575 46.1987 55.8575 36.0107C55.8575 25.8227 50.2055 26.1827 50.2055 26.1827H46.8575V30.8987C46.8575 30.8987 47.0375 36.5507 41.3135 36.5507H31.7735C31.7735 36.5507 26.4095 36.4787 26.4095 41.7347V50.4467C26.4095 50.4467 25.5815 55.7747 36.1295 55.7747ZM41.4575 52.7147C40.4855 52.7147 39.7295 51.9227 39.7295 50.9867C39.7295 50.0507 40.5215 49.2587 41.4575 49.2587C42.4295 49.2587 43.1855 50.0507 43.1855 50.9867C43.1855 51.9587 42.3935 52.7147 41.4575 52.7147Z" fill="url(#paint1_linear)"/>
<defs>
<linearGradient id="paint0_linear" x1="19.8492" y1="19.7758" x2="39.5052" y2="39.4977" gradientUnits="userSpaceOnUse">
<stop stop-color="#387EB8"/>
<stop offset="1" stop-color="#366994"/>
</linearGradient>
<linearGradient id="paint1_linear" x1="31.9366" y1="32.3304" x2="53.0474" y2="52.5556" gradientUnits="userSpaceOnUse">
<stop stop-color="#FFE052"/>
<stop offset="1" stop-color="#FFC331"/>
</linearGradient>
</defs>
</svg>
