<svg width="36" height="32" viewBox="0 0 36 32" fill="none" xmlns="http://www.w3.org/2000/svg">
<path d="M35.5002 15.2074H0.496236C0.225242 15.2074 0 15.4082 0 15.6504V16.0208C0 16.263 0.221723 16.4638 0.496236 16.4638H35.5038C35.7748 16.4638 36 16.263 36 16.0208V15.6504C35.9965 15.4047 35.7748 15.2074 35.5002 15.2074ZM2.26298 2.86567C2.26298 2.41921 2.48822 1.99005 2.89295 1.66126C3.32936 1.30478 3.9171 1.10751 4.54003 1.10751H13.8348V0H4.54355C2.66419 0 1.13677 1.28748 1.13677 2.86913V12.0199H2.2665V2.86567H2.26298ZM2.97742 30.2834C2.56917 29.9511 2.34744 29.5254 2.34744 29.079V19.9282H1.21771V29.079C1.21771 30.6606 2.74514 31.9481 4.6245 31.9481H13.9192V30.8371H4.62802C4.00156 30.8371 3.41734 30.6398 2.97742 30.2834ZM33.4907 29.1309C33.4907 29.5773 33.2654 30.0065 32.8607 30.3353C32.4243 30.6918 31.8365 30.889 31.2136 30.889H21.9189V32H31.2136C33.093 32 34.6204 30.7125 34.6204 29.1309V19.9801H33.4907V29.1309ZM32.8431 1.71317C33.2513 2.04543 33.4731 2.47112 33.4731 2.91759V12.0684H34.6028V2.91759C34.6028 1.33593 33.0754 0.0484533 31.196 0.0484533H21.9013V1.16288H31.196C31.8189 1.16288 32.4067 1.35669 32.8431 1.71317Z" fill="#FF9356"/>
</svg>
