<svg width="72" height="72" viewBox="0 0 72 72" fill="none" xmlns="http://www.w3.org/2000/svg">
<path d="M60 36.5049C60 33.3062 56.0179 30.2749 49.9128 28.3951C51.3216 22.1355 50.6955 17.1554 47.9364 15.561C47.3004 15.187 46.5569 15.0098 45.7448 15.0098V17.2046C46.1949 17.2046 46.5569 17.2932 46.8602 17.4605C48.1908 18.2282 48.768 21.1513 48.318 24.911C48.2104 25.8361 48.0342 26.8105 47.819 27.8045C45.9013 27.3321 43.8076 26.968 41.6062 26.7317C40.2854 24.911 38.9156 23.2575 37.5361 21.8107C40.7256 18.8286 43.7195 17.1948 45.7546 17.1948V15C43.064 15 39.5418 16.929 35.9804 20.2753C32.4191 16.9487 28.8969 15.0394 26.2063 15.0394V17.2341C28.2316 17.2341 31.2352 18.8581 34.4248 21.8206C33.055 23.2673 31.6853 24.911 30.384 26.7317C28.1729 26.968 26.0791 27.3321 24.1614 27.8144C23.9364 26.8302 23.7701 25.8755 23.6527 24.9602C23.1928 21.2005 23.7603 18.2774 25.0811 17.4999C25.3746 17.3227 25.7562 17.244 26.2063 17.244V15.0492C25.3844 15.0492 24.6408 15.2264 23.9951 15.6004C21.2458 17.1948 20.6294 22.165 22.0481 28.4049C15.9625 30.2946 12 33.3161 12 36.5049C12 39.7036 15.9821 42.7349 22.0872 44.6148C20.6784 50.8743 21.3045 55.8544 24.0636 57.4488C24.6996 57.8228 25.4431 58 26.265 58C28.9556 58 32.4778 56.071 36.0391 52.7246C39.6005 56.0513 43.1227 57.9606 45.8133 57.9606C46.6351 57.9606 47.3787 57.7835 48.0245 57.4095C50.7738 55.8151 51.3901 50.8448 49.9715 44.6049C56.0375 42.7251 60 39.6938 60 36.5049ZM47.2613 29.9403C46.8993 31.2099 46.4492 32.5189 45.9405 33.8279C45.5393 33.0405 45.1186 32.2531 44.6588 31.4658C44.2087 30.6784 43.7293 29.9107 43.2499 29.1627C44.6392 29.3694 45.9796 29.6253 47.2613 29.9403ZM42.7803 40.4221C42.0171 41.7507 41.2344 43.0105 40.4223 44.1817C38.9645 44.3097 37.4872 44.3786 36 44.3786C34.5226 44.3786 33.0453 44.3097 31.5972 44.1916C30.7852 43.0204 29.9927 41.7704 29.2295 40.4516C28.4859 39.1623 27.8108 37.8533 27.1945 36.5344C27.8011 35.2156 28.4859 33.8968 29.2197 32.6075C29.9829 31.2788 30.7656 30.019 31.5777 28.8478C33.0355 28.7198 34.5128 28.6509 36 28.6509C37.4774 28.6509 38.9548 28.7198 40.4028 28.8379C41.2148 30.0092 42.0073 31.2591 42.7705 32.5779C43.5141 33.8672 44.1892 35.1762 44.8055 36.4951C44.1892 37.8139 43.5141 39.1328 42.7803 40.4221ZM45.9405 39.1426C46.4688 40.4614 46.9189 41.7803 47.2907 43.0597C46.009 43.3747 44.6588 43.6404 43.2597 43.8471C43.7391 43.0893 44.2185 42.3117 44.6686 41.5145C45.1186 40.7272 45.5393 39.93 45.9405 39.1426ZM36.0196 49.6441C35.1097 48.6992 34.1998 47.6461 33.2996 46.4946C34.1802 46.534 35.0803 46.5635 35.9902 46.5635C36.9099 46.5635 37.8198 46.5438 38.7102 46.4946C37.8296 47.6461 36.9197 48.6992 36.0196 49.6441ZM28.7403 43.8471C27.351 43.6404 26.0106 43.3845 24.7289 43.0696C25.0909 41.8 25.541 40.491 26.0497 39.182C26.4509 39.9693 26.8716 40.7567 27.3314 41.5441C27.7913 42.3314 28.2609 43.0991 28.7403 43.8471ZM35.9707 23.3658C36.8806 24.3106 37.7905 25.3637 38.6906 26.5152C37.81 26.4759 36.9099 26.4463 36 26.4463C35.0803 26.4463 34.1704 26.466 33.2801 26.5152C34.1606 25.3637 35.0705 24.3106 35.9707 23.3658ZM28.7305 29.1627C28.2511 29.9206 27.7717 30.6981 27.3216 31.4953C26.8716 32.2827 26.4509 33.07 26.0497 33.8574C25.5214 32.5386 25.0713 31.2197 24.6996 29.9403C25.9812 29.6352 27.3314 29.3694 28.7305 29.1627ZM19.8761 41.485C16.4126 39.9989 14.172 38.0501 14.172 36.5049C14.172 34.9597 16.4126 33.0011 19.8761 31.5248C20.7175 31.1607 21.6372 30.8359 22.5862 30.5308C23.1439 32.4598 23.8777 34.4676 24.7876 36.5246C23.8875 38.5718 23.1635 40.5697 22.6156 42.4889C21.647 42.1838 20.7273 41.8492 19.8761 41.485ZM25.1398 55.5493C23.8092 54.7816 23.232 51.8585 23.682 48.0989C23.7896 47.1737 23.9658 46.1994 24.181 45.2053C26.0987 45.6777 28.1924 46.0419 30.3938 46.2781C31.7146 48.0989 33.0844 49.7523 34.4639 51.1991C31.2744 54.1813 28.2805 55.8151 26.2454 55.8151C25.8051 55.8052 25.4333 55.7166 25.1398 55.5493ZM48.3473 48.0497C48.8072 51.8093 48.2397 54.7324 46.9189 55.51C46.6254 55.6871 46.2438 55.7659 45.7937 55.7659C43.7684 55.7659 40.7648 54.1419 37.5752 51.1794C38.945 49.7327 40.3147 48.089 41.616 46.2683C43.8272 46.032 45.9209 45.6679 47.8386 45.1856C48.0636 46.1797 48.2397 47.1344 48.3473 48.0497ZM52.1141 41.485C51.2727 41.8492 50.353 42.174 49.404 42.4791C48.8463 40.55 48.1125 38.5422 47.2026 36.4852C48.1027 34.4381 48.8267 32.4401 49.3746 30.5209C50.3433 30.826 51.2629 31.1607 52.1239 31.5248C55.5874 33.011 57.828 34.9597 57.828 36.5049C57.8182 38.0501 55.5777 40.0087 52.1141 41.485Z" fill="#61DAFB"/>
<path d="M35.9903 41.0027C38.4597 41.0027 40.4616 38.989 40.4616 36.5049C40.4616 34.0208 38.4597 32.0071 35.9903 32.0071C33.5209 32.0071 31.519 34.0208 31.519 36.5049C31.519 38.989 33.5209 41.0027 35.9903 41.0027Z" fill="#61DAFB"/>
</svg>
