<svg width="36" height="32" viewBox="0 0 36 32" fill="none" xmlns="http://www.w3.org/2000/svg">
<path d="M34.8363 10.2805L34.8104 10.2382L34.7889 10.2515L18.0005 0L1.21205 10.252L1.19064 10.2387L1.16474 10.281L0 10.9921V28.082C0 30.2423 1.71948 32 3.83285 32H32.1671C34.2805 32 36 30.2423 36 28.082V10.9921L34.8363 10.2805ZM18.0005 1.77857L33.3638 11.1606L18.5592 20.5981L18.4536 20.6546C18.3814 20.6923 18.3142 20.7203 18.2838 20.7289L18.2306 20.7396C18.0657 20.7793 17.9656 20.7854 17.7485 20.7356C17.6868 20.7198 17.6191 20.6918 17.5105 20.6343C17.4891 20.6225 17.4627 20.6083 17.4736 20.6164L2.63723 11.1606L18.0005 1.77857ZM34.5066 28.0814C34.5066 29.3998 33.4574 30.4724 32.1676 30.4724H3.83335C2.54361 30.4724 1.4944 29.3998 1.4944 28.0814V12.2311L16.6784 21.9094C16.7133 21.9323 16.7491 21.9522 16.7715 21.9623L16.8641 22.0132C17.0334 22.1018 17.2042 22.1695 17.3666 22.2133L17.4248 22.226C17.622 22.2749 17.8162 22.2988 18.0025 22.2988C18.1862 22.2988 18.3799 22.2749 18.5557 22.2311L18.6299 22.2143C18.7977 22.1695 18.9685 22.1018 19.1359 22.0143L34.5071 12.2306V28.0814H34.5066Z" fill="#5671FF"/>
</svg>
