<svg width="18" height="15" viewBox="0 0 18 15" fill="none" xmlns="http://www.w3.org/2000/svg">
<path d="M0 0.272705H18V14.1818H0V0.272705ZM17.1818 1.09089H0.818182V13.3636H17.1818V1.09089Z" fill="#979797"/>
<path d="M6.13624 9.27272C6.01352 9.27272 5.91124 9.23181 5.82943 9.12954C5.68624 8.9659 5.7067 8.69999 5.89079 8.55681L7.9567 6.81817L5.87034 5.07954C5.7067 4.93636 5.66579 4.67045 5.80897 4.50681C5.95215 4.34317 6.21806 4.30226 6.3817 4.44545L8.83624 6.4909C8.93852 6.57272 8.97943 6.67499 8.97943 6.79772C8.97943 6.92045 8.91806 7.04317 8.83624 7.10454L6.3817 9.14999C6.32034 9.23181 6.23852 9.27272 6.13624 9.27272Z" fill="#979797"/>
<path d="M11.8636 10.0909H9.40909C9.18409 10.0909 9 9.9068 9 9.6818C9 9.4568 9.18409 9.27271 9.40909 9.27271H11.8636C12.0886 9.27271 12.2727 9.4568 12.2727 9.6818C12.2727 9.9068 12.0886 10.0909 11.8636 10.0909Z" fill="#979797"/>
</svg>
