<svg width="36" height="36" viewBox="0 0 36 36" fill="none" xmlns="http://www.w3.org/2000/svg">
<path d="M11.6255 24.372C11.9211 30.844 17.26 35.9996 23.8053 36C30.5403 35.9996 35.9996 30.5412 36 23.8068C35.9996 17.2632 30.8451 11.9256 24.3745 11.628C24.0781 5.1588 18.7368 0.0004 12.1947 0C5.46252 0.0004 0.000400009 5.462 0 12.1932C0.000400009 18.734 5.15731 24.074 11.6255 24.372ZM34.8388 23.8068C34.8384 26.8552 33.6047 29.6092 31.6071 31.6076C29.6087 33.6048 26.8542 34.8384 23.8053 34.8388C20.7569 34.8384 18.002 33.6048 16.0036 31.6076C14.0107 29.6144 12.7787 26.8684 12.7727 23.8288L12.7751 23.806L12.7727 23.7836C12.7791 20.7448 14.0111 17.9992 16.0036 16.006C18.002 14.0088 20.7565 12.7752 23.8053 12.7748C26.8538 12.7752 29.6087 14.0088 31.6071 16.006C33.6047 18.004 34.8384 20.7584 34.8388 23.8068ZM4.3941 4.3936C6.39294 2.3956 9.1478 1.1612 12.1947 1.1612C15.2415 1.1616 17.996 2.396 19.9952 4.3936C21.8689 6.268 23.0713 8.8072 23.2137 11.6284C16.9512 11.928 11.9279 16.9496 11.6259 23.2108C8.8058 23.0676 6.26774 21.8656 4.3937 19.9928C2.39565 17.994 1.16123 15.2396 1.16083 12.1932C1.16163 9.1468 2.39605 6.3924 4.3941 4.3936Z" fill="#5671FF"/>
<path d="M8.16219 14.2329L12.3895 12.7225C12.6207 12.6401 12.7747 12.4213 12.7747 12.1757V5.99291C12.7747 5.67211 12.5147 5.41211 12.1939 5.41211C11.8731 5.41211 11.6131 5.67211 11.6131 5.99291V11.7669L7.77098 13.1397C7.46897 13.2477 7.31177 13.5797 7.41937 13.8817C7.52778 14.1837 7.86018 14.3409 8.16219 14.2329Z" fill="#5671FF"/>
<path d="M23.2277 17.2743V18.5547H22.3005C21.4909 18.5543 20.7516 18.8799 20.2196 19.4059C19.6868 19.9311 19.3536 20.6647 19.354 21.4707C19.3536 22.2763 19.6868 23.0103 20.2196 23.5351C20.752 24.0611 21.4909 24.3867 22.3005 24.3863H25.3165C25.8137 24.3867 26.2578 24.5839 26.5818 24.9031C26.905 25.2235 27.1018 25.6571 27.1022 26.1411C27.1018 26.6251 26.9054 27.0591 26.5818 27.3791C26.2578 27.6983 25.8137 27.8955 25.3165 27.8959H20.9204C20.5996 27.8959 20.3396 28.1559 20.3396 28.4767C20.3396 28.7975 20.5996 29.0575 20.9204 29.0575H23.2281V30.3271C23.2281 30.6479 23.4881 30.9079 23.8089 30.9079C24.1297 30.9079 24.3897 30.6479 24.3897 30.3271V29.0575H25.3169C26.1266 29.0579 26.8658 28.7323 27.3978 28.2063C27.931 27.6811 28.2638 26.9475 28.2634 26.1419C28.2638 25.3363 27.9306 24.6023 27.3978 24.0771C26.8654 23.5511 26.1266 23.2255 25.3169 23.2259H22.3009C21.8037 23.2255 21.3596 23.0283 21.0356 22.7091C20.7124 22.3887 20.5156 21.9551 20.5152 21.4711C20.5156 20.9871 20.712 20.5531 21.0356 20.2331C21.3596 19.9139 21.8037 19.7167 22.3009 19.7163H26.697C27.0178 19.7163 27.2774 19.4563 27.2774 19.1359C27.2774 18.8151 27.0174 18.5555 26.697 18.5555H24.3893V17.2751C24.3893 16.9543 24.1293 16.6943 23.8085 16.6943C23.4877 16.6943 23.2277 16.9535 23.2277 17.2743Z" fill="#5671FF"/>
</svg>
