<svg width="18" height="18" viewBox="0 0 18 18" fill="none" xmlns="http://www.w3.org/2000/svg">
<path d="M9 18C4.02944 18 0 13.9706 0 9C0 4.02944 4.02944 0 9 0C13.9706 0 18 4.02944 18 9C18 13.9706 13.9706 18 9 18ZM3.70769 14.9994C5.11804 16.2445 6.97079 17 9 17C11.0292 17 12.882 16.2445 14.2923 14.9994L12.1644 12.8715C11.3024 13.5768 10.2006 14 9 14C7.79937 14 6.69757 13.5768 5.83563 12.8715L3.70769 14.9994ZM3.00058 14.2923L5.12853 12.1644C4.42318 11.3024 4 10.2006 4 9C4 7.79937 4.42318 6.69757 5.12853 5.83563L3.00058 3.70769C1.75551 5.11804 1 6.97079 1 9C1 11.0292 1.75551 12.882 3.00058 14.2923ZM3.70769 3.00058L5.83563 5.12853C6.69757 4.42318 7.79937 4 9 4C10.2006 4 11.3024 4.42318 12.1644 5.12853L14.2923 3.00058C12.882 1.75551 11.0292 1 9 1C6.97079 1 5.11804 1.75551 3.70769 3.00058ZM14.9994 3.70769L12.8715 5.83563C13.5768 6.69757 14 7.79937 14 9C14 10.2006 13.5768 11.3024 12.8715 12.1644L14.9994 14.2923C16.2445 12.882 17 11.0292 17 9C17 6.97079 16.2445 5.11804 14.9994 3.70769ZM9 13C11.2091 13 13 11.2091 13 9C13 6.79086 11.2091 5 9 5C6.79086 5 5 6.79086 5 9C5 11.2091 6.79086 13 9 13Z" fill="#979797"/>
</svg>
