<svg width="36" height="33" viewBox="0 0 36 33" fill="none" xmlns="http://www.w3.org/2000/svg">
<path d="M33.9443 25.2774C35.2226 23.0393 35.8965 20.5067 35.8965 17.9355C35.8965 12.013 31.9116 6.6164 26.3932 4.18796C26.2851 4.14079 26.172 4.12766 26.0627 4.13997C23.3033 1.5774 19.5805 0 15.4863 0C7.00322 0 0.1022 6.7579 0.1022 15.0641C0.1022 17.6357 0.776134 20.1679 2.05447 22.406L0 29.9141L7.51004 27.9434C8.68366 28.6418 9.94148 29.1762 11.2487 29.5433C11.268 29.5614 11.286 29.5806 11.3082 29.5966C13.9817 31.5547 17.1646 33 20.5133 33C23.3343 33 26.0866 32.2449 28.49 30.8148L36 32.7855L33.9443 25.2774ZM7.94522 26.7605L7.71276 26.6161L1.77636 28.1743L3.40234 22.233L3.27082 22.0115C2.02013 19.907 1.35876 17.5048 1.35876 15.0645C1.35876 7.43587 7.69601 1.23042 15.4863 1.23042C23.2761 1.23042 29.6137 7.43628 29.6137 15.0641C29.6137 22.6919 23.2761 28.8982 15.4863 28.8982C12.8102 28.8982 10.2028 28.1591 7.94522 26.7605ZM28.286 29.4875L28.0535 29.6319C25.7959 31.0305 23.1885 31.77 20.5125 31.77C18.3629 31.77 16.2888 31.1043 14.396 30.09C14.7579 30.1155 15.121 30.129 15.4863 30.129C23.9689 30.129 30.8703 23.3707 30.8703 15.0645C30.8703 11.9269 29.8843 9.0104 28.2014 6.59549C32.0335 9.15436 34.6404 13.3714 34.6404 17.9359C34.6404 20.3762 33.979 22.7789 32.7283 24.8829L32.5968 25.1044L34.2228 31.0457L28.286 29.4875Z" fill="#0094FF"/>
</svg>
